<svg width="512" height="512" viewBox="0 0 512 512" xmlns="http://www.w3.org/2000/svg">
  <rect width="512" height="512" rx="120" fill="#FFF7FA"/>
  <circle cx="256" cy="256" r="190" fill="#FFD6E5"/>
  <path d="M256 120c-45 0-82 28-97 70 20-16 44-25 71-25 57 0 103 43 103 96 0 33-17 63-43 80 35-11 61-42 61-80 0-46-37-84-95-84z" fill="#E75480"/>
  <path d="M186 300c22 33 57 53 95 53 42 0 79-22 101-58-18 12-39 19-62 19-39 0-74-18-102-44-10 10-20 20-32 30z" fill="#F7B2C4"/>
  <circle cx="205" cy="220" r="18" fill="#fff"/>
  <circle cx="308" cy="220" r="18" fill="#fff"/>
</svg>
